<mxfile host="app.diagrams.net" agent="Mozilla/5.0 (Windows NT 10.0; Win64; x64) AppleWebKit/537.36 (KHTML, like Gecko) Chrome/127.0.0.0 Safari/537.36" version="24.7.7">
  <diagram name="Page-1" id="4sp3sW8QTE9m_QacPEpM">
    <mxGraphModel grid="1" page="1" gridSize="10" guides="1" tooltips="1" connect="1" arrows="1" fold="1" pageScale="1" pageWidth="850" pageHeight="1100" math="0" shadow="0">
      <root>
        <mxCell id="0" />
        <mxCell id="1" parent="0" />
        <mxCell id="B3PF5haj98CHpinLr4vf-6" value="Library Management System" style="swimlane;fontStyle=1;align=center;verticalAlign=top;childLayout=stackLayout;horizontal=1;startSize=30;horizontalStack=0;resizeParent=1;resizeParentMax=0;resizeLast=0;collapsible=1;marginBottom=0;whiteSpace=wrap;html=1;" vertex="1" parent="1">
          <mxGeometry x="260" y="40" width="230" height="144" as="geometry" />
        </mxCell>
        <mxCell id="B3PF5haj98CHpinLr4vf-7" value="user type&lt;div&gt;user name&lt;/div&gt;&lt;div&gt;password&lt;/div&gt;" style="text;strokeColor=none;fillColor=none;align=center;verticalAlign=top;spacingLeft=4;spacingRight=4;overflow=hidden;rotatable=0;points=[[0,0.5],[1,0.5]];portConstraint=eastwest;whiteSpace=wrap;html=1;" vertex="1" parent="B3PF5haj98CHpinLr4vf-6">
          <mxGeometry y="30" width="230" height="54" as="geometry" />
        </mxCell>
        <mxCell id="B3PF5haj98CHpinLr4vf-8" value="" style="line;strokeWidth=1;fillColor=none;align=left;verticalAlign=middle;spacingTop=-1;spacingLeft=3;spacingRight=3;rotatable=0;labelPosition=right;points=[];portConstraint=eastwest;strokeColor=inherit;" vertex="1" parent="B3PF5haj98CHpinLr4vf-6">
          <mxGeometry y="84" width="230" height="8" as="geometry" />
        </mxCell>
        <mxCell id="B3PF5haj98CHpinLr4vf-9" value="login()&lt;div&gt;register()&lt;/div&gt;&lt;div&gt;logout()&lt;/div&gt;" style="text;strokeColor=none;fillColor=none;align=center;verticalAlign=top;spacingLeft=4;spacingRight=4;overflow=hidden;rotatable=0;points=[[0,0.5],[1,0.5]];portConstraint=eastwest;whiteSpace=wrap;html=1;" vertex="1" parent="B3PF5haj98CHpinLr4vf-6">
          <mxGeometry y="92" width="230" height="52" as="geometry" />
        </mxCell>
        <mxCell id="B3PF5haj98CHpinLr4vf-10" value="user" style="swimlane;fontStyle=1;align=center;verticalAlign=top;childLayout=stackLayout;horizontal=1;startSize=26;horizontalStack=0;resizeParent=1;resizeParentMax=0;resizeLast=0;collapsible=1;marginBottom=0;whiteSpace=wrap;html=1;" vertex="1" parent="1">
          <mxGeometry x="50" y="290" width="160" height="140" as="geometry" />
        </mxCell>
        <mxCell id="B3PF5haj98CHpinLr4vf-11" value="name&lt;div&gt;ID&lt;/div&gt;" style="text;strokeColor=none;fillColor=none;align=center;verticalAlign=top;spacingLeft=4;spacingRight=4;overflow=hidden;rotatable=0;points=[[0,0.5],[1,0.5]];portConstraint=eastwest;whiteSpace=wrap;html=1;" vertex="1" parent="B3PF5haj98CHpinLr4vf-10">
          <mxGeometry y="26" width="160" height="44" as="geometry" />
        </mxCell>
        <mxCell id="B3PF5haj98CHpinLr4vf-12" value="" style="line;strokeWidth=1;fillColor=none;align=left;verticalAlign=middle;spacingTop=-1;spacingLeft=3;spacingRight=3;rotatable=0;labelPosition=right;points=[];portConstraint=eastwest;strokeColor=inherit;" vertex="1" parent="B3PF5haj98CHpinLr4vf-10">
          <mxGeometry y="70" width="160" height="8" as="geometry" />
        </mxCell>
        <mxCell id="B3PF5haj98CHpinLr4vf-13" value="verify()&lt;div&gt;checkaccount()&lt;/div&gt;&lt;div&gt;get_book_info()&lt;/div&gt;" style="text;strokeColor=none;fillColor=none;align=center;verticalAlign=top;spacingLeft=4;spacingRight=4;overflow=hidden;rotatable=0;points=[[0,0.5],[1,0.5]];portConstraint=eastwest;whiteSpace=wrap;html=1;" vertex="1" parent="B3PF5haj98CHpinLr4vf-10">
          <mxGeometry y="78" width="160" height="62" as="geometry" />
        </mxCell>
        <mxCell id="B3PF5haj98CHpinLr4vf-14" value="book" style="swimlane;fontStyle=1;align=center;verticalAlign=top;childLayout=stackLayout;horizontal=1;startSize=26;horizontalStack=0;resizeParent=1;resizeParentMax=0;resizeLast=0;collapsible=1;marginBottom=0;whiteSpace=wrap;html=1;" vertex="1" parent="1">
          <mxGeometry x="390" y="290" width="160" height="160" as="geometry" />
        </mxCell>
        <mxCell id="B3PF5haj98CHpinLr4vf-15" value="title&lt;div&gt;author&lt;/div&gt;&lt;div&gt;ISBN&lt;/div&gt;&lt;div&gt;publication&lt;/div&gt;" style="text;strokeColor=none;fillColor=none;align=center;verticalAlign=top;spacingLeft=4;spacingRight=4;overflow=hidden;rotatable=0;points=[[0,0.5],[1,0.5]];portConstraint=eastwest;whiteSpace=wrap;html=1;" vertex="1" parent="B3PF5haj98CHpinLr4vf-14">
          <mxGeometry y="26" width="160" height="74" as="geometry" />
        </mxCell>
        <mxCell id="B3PF5haj98CHpinLr4vf-16" value="" style="line;strokeWidth=1;fillColor=none;align=left;verticalAlign=middle;spacingTop=-1;spacingLeft=3;spacingRight=3;rotatable=0;labelPosition=right;points=[];portConstraint=eastwest;strokeColor=inherit;" vertex="1" parent="B3PF5haj98CHpinLr4vf-14">
          <mxGeometry y="100" width="160" height="8" as="geometry" />
        </mxCell>
        <mxCell id="B3PF5haj98CHpinLr4vf-17" value="show_due()&lt;div&gt;feedback()&lt;/div&gt;&lt;div&gt;renew_info()&lt;/div&gt;" style="text;strokeColor=none;fillColor=none;align=center;verticalAlign=top;spacingLeft=4;spacingRight=4;overflow=hidden;rotatable=0;points=[[0,0.5],[1,0.5]];portConstraint=eastwest;whiteSpace=wrap;html=1;" vertex="1" parent="B3PF5haj98CHpinLr4vf-14">
          <mxGeometry y="108" width="160" height="52" as="geometry" />
        </mxCell>
        <mxCell id="B3PF5haj98CHpinLr4vf-18" value="Librarian" style="swimlane;fontStyle=1;align=center;verticalAlign=top;childLayout=stackLayout;horizontal=1;startSize=26;horizontalStack=0;resizeParent=1;resizeParentMax=0;resizeLast=0;collapsible=1;marginBottom=0;whiteSpace=wrap;html=1;" vertex="1" parent="1">
          <mxGeometry x="630" y="301" width="160" height="150" as="geometry" />
        </mxCell>
        <mxCell id="B3PF5haj98CHpinLr4vf-19" value="name&lt;div&gt;ID&lt;/div&gt;&lt;div&gt;password&lt;/div&gt;&lt;div&gt;search string&lt;/div&gt;" style="text;strokeColor=none;fillColor=none;align=center;verticalAlign=top;spacingLeft=4;spacingRight=4;overflow=hidden;rotatable=0;points=[[0,0.5],[1,0.5]];portConstraint=eastwest;whiteSpace=wrap;html=1;" vertex="1" parent="B3PF5haj98CHpinLr4vf-18">
          <mxGeometry y="26" width="160" height="74" as="geometry" />
        </mxCell>
        <mxCell id="B3PF5haj98CHpinLr4vf-20" value="" style="line;strokeWidth=1;fillColor=none;align=left;verticalAlign=middle;spacingTop=-1;spacingLeft=3;spacingRight=3;rotatable=0;labelPosition=right;points=[];portConstraint=eastwest;strokeColor=inherit;" vertex="1" parent="B3PF5haj98CHpinLr4vf-18">
          <mxGeometry y="100" width="160" height="8" as="geometry" />
        </mxCell>
        <mxCell id="B3PF5haj98CHpinLr4vf-21" value="verify_librarian&lt;div&gt;search&lt;/div&gt;" style="text;strokeColor=none;fillColor=none;align=center;verticalAlign=top;spacingLeft=4;spacingRight=4;overflow=hidden;rotatable=0;points=[[0,0.5],[1,0.5]];portConstraint=eastwest;whiteSpace=wrap;html=1;" vertex="1" parent="B3PF5haj98CHpinLr4vf-18">
          <mxGeometry y="108" width="160" height="42" as="geometry" />
        </mxCell>
        <mxCell id="B3PF5haj98CHpinLr4vf-22" value="Account" style="swimlane;fontStyle=1;align=center;verticalAlign=top;childLayout=stackLayout;horizontal=1;startSize=26;horizontalStack=0;resizeParent=1;resizeParentMax=0;resizeLast=0;collapsible=1;marginBottom=0;whiteSpace=wrap;html=1;" vertex="1" parent="1">
          <mxGeometry x="230" y="470" width="160" height="140" as="geometry" />
        </mxCell>
        <mxCell id="B3PF5haj98CHpinLr4vf-23" value="no_borrowed_books&lt;div&gt;no_reserved_books&lt;/div&gt;&lt;div&gt;no_returned_books&lt;/div&gt;&lt;div&gt;no_lost_books&lt;/div&gt;&lt;div&gt;fine_amount&lt;/div&gt;" style="text;strokeColor=none;fillColor=none;align=center;verticalAlign=top;spacingLeft=4;spacingRight=4;overflow=hidden;rotatable=0;points=[[0,0.5],[1,0.5]];portConstraint=eastwest;whiteSpace=wrap;html=1;" vertex="1" parent="B3PF5haj98CHpinLr4vf-22">
          <mxGeometry y="26" width="160" height="84" as="geometry" />
        </mxCell>
        <mxCell id="B3PF5haj98CHpinLr4vf-24" value="" style="line;strokeWidth=1;fillColor=none;align=left;verticalAlign=middle;spacingTop=-1;spacingLeft=3;spacingRight=3;rotatable=0;labelPosition=right;points=[];portConstraint=eastwest;strokeColor=inherit;" vertex="1" parent="B3PF5haj98CHpinLr4vf-22">
          <mxGeometry y="110" width="160" height="8" as="geometry" />
        </mxCell>
        <mxCell id="B3PF5haj98CHpinLr4vf-25" value="calculate_fine()" style="text;strokeColor=none;fillColor=none;align=center;verticalAlign=top;spacingLeft=4;spacingRight=4;overflow=hidden;rotatable=0;points=[[0,0.5],[1,0.5]];portConstraint=eastwest;whiteSpace=wrap;html=1;" vertex="1" parent="B3PF5haj98CHpinLr4vf-22">
          <mxGeometry y="118" width="160" height="22" as="geometry" />
        </mxCell>
        <mxCell id="B3PF5haj98CHpinLr4vf-26" value="LibraryDatabase" style="swimlane;fontStyle=1;align=center;verticalAlign=top;childLayout=stackLayout;horizontal=1;startSize=26;horizontalStack=0;resizeParent=1;resizeParentMax=0;resizeLast=0;collapsible=1;marginBottom=0;whiteSpace=wrap;html=1;" vertex="1" parent="1">
          <mxGeometry x="570" y="580" width="160" height="140" as="geometry" />
        </mxCell>
        <mxCell id="B3PF5haj98CHpinLr4vf-27" value="list_of_books" style="text;strokeColor=none;fillColor=none;align=center;verticalAlign=top;spacingLeft=4;spacingRight=4;overflow=hidden;rotatable=0;points=[[0,0.5],[1,0.5]];portConstraint=eastwest;whiteSpace=wrap;html=1;" vertex="1" parent="B3PF5haj98CHpinLr4vf-26">
          <mxGeometry y="26" width="160" height="26" as="geometry" />
        </mxCell>
        <mxCell id="B3PF5haj98CHpinLr4vf-28" value="" style="line;strokeWidth=1;fillColor=none;align=left;verticalAlign=middle;spacingTop=-1;spacingLeft=3;spacingRight=3;rotatable=0;labelPosition=right;points=[];portConstraint=eastwest;strokeColor=inherit;" vertex="1" parent="B3PF5haj98CHpinLr4vf-26">
          <mxGeometry y="52" width="160" height="8" as="geometry" />
        </mxCell>
        <mxCell id="B3PF5haj98CHpinLr4vf-29" value="add()&lt;div&gt;delete()&lt;/div&gt;&lt;div&gt;update()&lt;/div&gt;&lt;div&gt;display()&lt;/div&gt;&lt;div&gt;search()&lt;/div&gt;" style="text;strokeColor=none;fillColor=none;align=center;verticalAlign=top;spacingLeft=4;spacingRight=4;overflow=hidden;rotatable=0;points=[[0,0.5],[1,0.5]];portConstraint=eastwest;whiteSpace=wrap;html=1;" vertex="1" parent="B3PF5haj98CHpinLr4vf-26">
          <mxGeometry y="60" width="160" height="80" as="geometry" />
        </mxCell>
        <mxCell id="B3PF5haj98CHpinLr4vf-34" value="staff" style="swimlane;fontStyle=1;align=center;verticalAlign=top;childLayout=stackLayout;horizontal=1;startSize=26;horizontalStack=0;resizeParent=1;resizeParentMax=0;resizeLast=0;collapsible=1;marginBottom=0;whiteSpace=wrap;html=1;" vertex="1" parent="1">
          <mxGeometry x="20" y="680" width="120" height="86" as="geometry" />
        </mxCell>
        <mxCell id="B3PF5haj98CHpinLr4vf-35" value="dept" style="text;strokeColor=none;fillColor=none;align=left;verticalAlign=top;spacingLeft=4;spacingRight=4;overflow=hidden;rotatable=0;points=[[0,0.5],[1,0.5]];portConstraint=eastwest;whiteSpace=wrap;html=1;" vertex="1" parent="B3PF5haj98CHpinLr4vf-34">
          <mxGeometry y="26" width="120" height="26" as="geometry" />
        </mxCell>
        <mxCell id="B3PF5haj98CHpinLr4vf-36" value="" style="line;strokeWidth=1;fillColor=none;align=left;verticalAlign=middle;spacingTop=-1;spacingLeft=3;spacingRight=3;rotatable=0;labelPosition=right;points=[];portConstraint=eastwest;strokeColor=inherit;" vertex="1" parent="B3PF5haj98CHpinLr4vf-34">
          <mxGeometry y="52" width="120" height="8" as="geometry" />
        </mxCell>
        <mxCell id="B3PF5haj98CHpinLr4vf-37" value="." style="text;strokeColor=none;fillColor=none;align=left;verticalAlign=top;spacingLeft=4;spacingRight=4;overflow=hidden;rotatable=0;points=[[0,0.5],[1,0.5]];portConstraint=eastwest;whiteSpace=wrap;html=1;" vertex="1" parent="B3PF5haj98CHpinLr4vf-34">
          <mxGeometry y="60" width="120" height="26" as="geometry" />
        </mxCell>
        <mxCell id="B3PF5haj98CHpinLr4vf-42" value="student" style="swimlane;fontStyle=1;align=center;verticalAlign=top;childLayout=stackLayout;horizontal=1;startSize=26;horizontalStack=0;resizeParent=1;resizeParentMax=0;resizeLast=0;collapsible=1;marginBottom=0;whiteSpace=wrap;html=1;" vertex="1" parent="1">
          <mxGeometry x="170" y="680" width="110" height="86" as="geometry" />
        </mxCell>
        <mxCell id="B3PF5haj98CHpinLr4vf-43" value="class" style="text;strokeColor=none;fillColor=none;align=left;verticalAlign=top;spacingLeft=4;spacingRight=4;overflow=hidden;rotatable=0;points=[[0,0.5],[1,0.5]];portConstraint=eastwest;whiteSpace=wrap;html=1;" vertex="1" parent="B3PF5haj98CHpinLr4vf-42">
          <mxGeometry y="26" width="110" height="26" as="geometry" />
        </mxCell>
        <mxCell id="B3PF5haj98CHpinLr4vf-44" value="" style="line;strokeWidth=1;fillColor=none;align=left;verticalAlign=middle;spacingTop=-1;spacingLeft=3;spacingRight=3;rotatable=0;labelPosition=right;points=[];portConstraint=eastwest;strokeColor=inherit;" vertex="1" parent="B3PF5haj98CHpinLr4vf-42">
          <mxGeometry y="52" width="110" height="8" as="geometry" />
        </mxCell>
        <mxCell id="B3PF5haj98CHpinLr4vf-45" value="." style="text;strokeColor=none;fillColor=none;align=left;verticalAlign=top;spacingLeft=4;spacingRight=4;overflow=hidden;rotatable=0;points=[[0,0.5],[1,0.5]];portConstraint=eastwest;whiteSpace=wrap;html=1;" vertex="1" parent="B3PF5haj98CHpinLr4vf-42">
          <mxGeometry y="60" width="110" height="26" as="geometry" />
        </mxCell>
        <mxCell id="B3PF5haj98CHpinLr4vf-47" value="" style="endArrow=diamondThin;endFill=1;endSize=24;html=1;rounded=0;" edge="1" parent="1">
          <mxGeometry width="160" relative="1" as="geometry">
            <mxPoint x="120" y="290" as="sourcePoint" />
            <mxPoint x="290" y="180" as="targetPoint" />
            <Array as="points">
              <mxPoint x="120" y="250" />
              <mxPoint x="290" y="250" />
            </Array>
          </mxGeometry>
        </mxCell>
        <mxCell id="B3PF5haj98CHpinLr4vf-48" value="1" style="text;html=1;align=center;verticalAlign=middle;resizable=0;points=[];autosize=1;strokeColor=none;fillColor=none;" vertex="1" parent="1">
          <mxGeometry x="255" y="178" width="30" height="30" as="geometry" />
        </mxCell>
        <mxCell id="B3PF5haj98CHpinLr4vf-49" value="*" style="text;html=1;align=center;verticalAlign=middle;resizable=0;points=[];autosize=1;strokeColor=none;fillColor=none;" vertex="1" parent="1">
          <mxGeometry x="90" y="260" width="30" height="30" as="geometry" />
        </mxCell>
        <mxCell id="B3PF5haj98CHpinLr4vf-51" value="" style="endArrow=diamondThin;endFill=1;endSize=24;html=1;rounded=0;entryX=0.478;entryY=1.115;entryDx=0;entryDy=0;entryPerimeter=0;" edge="1" parent="1">
          <mxGeometry width="160" relative="1" as="geometry">
            <mxPoint x="440" y="290" as="sourcePoint" />
            <mxPoint x="369.94000000000005" y="184.00000000000003" as="targetPoint" />
            <Array as="points">
              <mxPoint x="440" y="234.02" />
              <mxPoint x="370" y="234.02" />
            </Array>
          </mxGeometry>
        </mxCell>
        <mxCell id="B3PF5haj98CHpinLr4vf-52" value="1" style="text;html=1;align=center;verticalAlign=middle;resizable=0;points=[];autosize=1;strokeColor=none;fillColor=none;" vertex="1" parent="1">
          <mxGeometry x="385" y="188" width="30" height="30" as="geometry" />
        </mxCell>
        <mxCell id="B3PF5haj98CHpinLr4vf-53" value="*" style="text;html=1;align=center;verticalAlign=middle;resizable=0;points=[];autosize=1;strokeColor=none;fillColor=none;" vertex="1" parent="1">
          <mxGeometry x="445" y="258" width="30" height="30" as="geometry" />
        </mxCell>
        <mxCell id="B3PF5haj98CHpinLr4vf-54" value="" style="endArrow=diamondThin;endFill=1;endSize=24;html=1;rounded=0;entryX=0.904;entryY=0.981;entryDx=0;entryDy=0;entryPerimeter=0;" edge="1" parent="1" target="B3PF5haj98CHpinLr4vf-9">
          <mxGeometry width="160" relative="1" as="geometry">
            <mxPoint x="710" y="300" as="sourcePoint" />
            <mxPoint x="450" y="190" as="targetPoint" />
            <Array as="points">
              <mxPoint x="710" y="240" />
              <mxPoint x="467" y="240" />
            </Array>
          </mxGeometry>
        </mxCell>
        <mxCell id="B3PF5haj98CHpinLr4vf-55" value="1" style="text;html=1;align=center;verticalAlign=middle;resizable=0;points=[];autosize=1;strokeColor=none;fillColor=none;" vertex="1" parent="1">
          <mxGeometry x="475" y="188" width="30" height="30" as="geometry" />
        </mxCell>
        <mxCell id="B3PF5haj98CHpinLr4vf-56" value="*" style="text;html=1;align=center;verticalAlign=middle;resizable=0;points=[];autosize=1;strokeColor=none;fillColor=none;fontStyle=1" vertex="1" parent="1">
          <mxGeometry x="715" y="268" width="30" height="30" as="geometry" />
        </mxCell>
        <mxCell id="B3PF5haj98CHpinLr4vf-60" value="" style="endArrow=none;html=1;rounded=0;exitX=1.013;exitY=0.107;exitDx=0;exitDy=0;exitPerimeter=0;entryX=0;entryY=0.094;entryDx=0;entryDy=0;entryPerimeter=0;" edge="1" parent="1" source="B3PF5haj98CHpinLr4vf-10" target="B3PF5haj98CHpinLr4vf-14">
          <mxGeometry width="50" height="50" relative="1" as="geometry">
            <mxPoint x="280" y="350" as="sourcePoint" />
            <mxPoint x="330" y="300" as="targetPoint" />
          </mxGeometry>
        </mxCell>
        <mxCell id="B3PF5haj98CHpinLr4vf-61" value="*" style="text;html=1;align=center;verticalAlign=middle;resizable=0;points=[];autosize=1;strokeColor=none;fillColor=none;" vertex="1" parent="1">
          <mxGeometry x="215" y="278" width="30" height="30" as="geometry" />
        </mxCell>
        <mxCell id="B3PF5haj98CHpinLr4vf-62" value="*" style="text;html=1;align=center;verticalAlign=middle;resizable=0;points=[];autosize=1;strokeColor=none;fillColor=none;" vertex="1" parent="1">
          <mxGeometry x="355" y="278" width="30" height="30" as="geometry" />
        </mxCell>
        <mxCell id="B3PF5haj98CHpinLr4vf-63" value="" style="endArrow=diamondThin;endFill=1;endSize=24;html=1;rounded=0;entryX=1.063;entryY=0.032;entryDx=0;entryDy=0;entryPerimeter=0;" edge="1" parent="1">
          <mxGeometry width="160" relative="1" as="geometry">
            <mxPoint x="310" y="470" as="sourcePoint" />
            <mxPoint x="209.99999999999991" y="360.0039999999999" as="targetPoint" />
            <Array as="points">
              <mxPoint x="309.92" y="360.02" />
            </Array>
          </mxGeometry>
        </mxCell>
        <mxCell id="B3PF5haj98CHpinLr4vf-64" value="1" style="text;html=1;align=center;verticalAlign=middle;resizable=0;points=[];autosize=1;strokeColor=none;fillColor=none;" vertex="1" parent="1">
          <mxGeometry x="225" y="328" width="30" height="30" as="geometry" />
        </mxCell>
        <mxCell id="B3PF5haj98CHpinLr4vf-65" value="1" style="text;html=1;align=center;verticalAlign=middle;resizable=0;points=[];autosize=1;strokeColor=none;fillColor=none;" vertex="1" parent="1">
          <mxGeometry x="315" y="438" width="30" height="30" as="geometry" />
        </mxCell>
        <mxCell id="B3PF5haj98CHpinLr4vf-66" value="" style="endArrow=none;html=1;rounded=0;exitX=1.019;exitY=0.324;exitDx=0;exitDy=0;exitPerimeter=0;entryX=0.025;entryY=0.176;entryDx=0;entryDy=0;entryPerimeter=0;" edge="1" parent="1" source="B3PF5haj98CHpinLr4vf-15" target="B3PF5haj98CHpinLr4vf-19">
          <mxGeometry width="50" height="50" relative="1" as="geometry">
            <mxPoint x="570" y="380" as="sourcePoint" />
            <mxPoint x="620" y="330" as="targetPoint" />
          </mxGeometry>
        </mxCell>
        <mxCell id="B3PF5haj98CHpinLr4vf-67" value="*" style="text;html=1;align=center;verticalAlign=middle;resizable=0;points=[];autosize=1;strokeColor=none;fillColor=none;" vertex="1" parent="1">
          <mxGeometry x="550" y="320" width="30" height="30" as="geometry" />
        </mxCell>
        <mxCell id="B3PF5haj98CHpinLr4vf-68" value="1" style="text;html=1;align=center;verticalAlign=middle;resizable=0;points=[];autosize=1;strokeColor=none;fillColor=none;" vertex="1" parent="1">
          <mxGeometry x="600" y="320" width="30" height="30" as="geometry" />
        </mxCell>
        <mxCell id="B3PF5haj98CHpinLr4vf-69" value="" style="endArrow=none;html=1;rounded=0;entryX=1;entryY=0.127;entryDx=0;entryDy=0;entryPerimeter=0;" edge="1" parent="1" target="B3PF5haj98CHpinLr4vf-18">
          <mxGeometry width="50" height="50" relative="1" as="geometry">
            <mxPoint x="660" y="579" as="sourcePoint" />
            <mxPoint x="820" y="270" as="targetPoint" />
            <Array as="points">
              <mxPoint x="660" y="550" />
              <mxPoint x="820" y="550" />
              <mxPoint x="820" y="320" />
            </Array>
          </mxGeometry>
        </mxCell>
        <mxCell id="B3PF5haj98CHpinLr4vf-70" value="1" style="text;html=1;align=center;verticalAlign=middle;resizable=0;points=[];autosize=1;strokeColor=none;fillColor=none;" vertex="1" parent="1">
          <mxGeometry x="790" y="290" width="30" height="30" as="geometry" />
        </mxCell>
        <mxCell id="B3PF5haj98CHpinLr4vf-71" value="1" style="text;html=1;align=center;verticalAlign=middle;resizable=0;points=[];autosize=1;strokeColor=none;fillColor=none;" vertex="1" parent="1">
          <mxGeometry x="630" y="550" width="30" height="30" as="geometry" />
        </mxCell>
        <mxCell id="B3PF5haj98CHpinLr4vf-72" value="" style="endArrow=none;html=1;rounded=0;entryX=0.794;entryY=1.058;entryDx=0;entryDy=0;entryPerimeter=0;exitX=0.319;exitY=0.975;exitDx=0;exitDy=0;exitPerimeter=0;" edge="1" parent="1" source="B3PF5haj98CHpinLr4vf-29" target="B3PF5haj98CHpinLr4vf-17">
          <mxGeometry width="50" height="50" relative="1" as="geometry">
            <mxPoint x="640" y="760" as="sourcePoint" />
            <mxPoint x="500" y="470" as="targetPoint" />
            <Array as="points">
              <mxPoint x="620" y="760" />
              <mxPoint x="520" y="760" />
            </Array>
          </mxGeometry>
        </mxCell>
        <mxCell id="B3PF5haj98CHpinLr4vf-73" value="*" style="text;html=1;align=center;verticalAlign=middle;resizable=0;points=[];autosize=1;strokeColor=none;fillColor=none;" vertex="1" parent="1">
          <mxGeometry x="485" y="448" width="30" height="30" as="geometry" />
        </mxCell>
        <mxCell id="B3PF5haj98CHpinLr4vf-74" value="1" style="text;html=1;align=center;verticalAlign=middle;resizable=0;points=[];autosize=1;strokeColor=none;fillColor=none;" vertex="1" parent="1">
          <mxGeometry x="620" y="720" width="30" height="30" as="geometry" />
        </mxCell>
        <mxCell id="B3PF5haj98CHpinLr4vf-75" value="" style="endArrow=none;html=1;rounded=0;entryX=0.819;entryY=1.136;entryDx=0;entryDy=0;entryPerimeter=0;exitX=0.681;exitY=1.025;exitDx=0;exitDy=0;exitPerimeter=0;" edge="1" parent="1" source="B3PF5haj98CHpinLr4vf-29" target="B3PF5haj98CHpinLr4vf-25">
          <mxGeometry width="50" height="50" relative="1" as="geometry">
            <mxPoint x="690" y="730" as="sourcePoint" />
            <mxPoint x="430" y="660" as="targetPoint" />
            <Array as="points">
              <mxPoint x="680" y="800" />
              <mxPoint x="361" y="800" />
            </Array>
          </mxGeometry>
        </mxCell>
        <mxCell id="B3PF5haj98CHpinLr4vf-76" value="1" style="text;html=1;align=center;verticalAlign=middle;resizable=0;points=[];autosize=1;strokeColor=none;fillColor=none;" vertex="1" parent="1">
          <mxGeometry x="675" y="718" width="30" height="30" as="geometry" />
        </mxCell>
        <mxCell id="B3PF5haj98CHpinLr4vf-77" value="*" style="text;html=1;align=center;verticalAlign=middle;resizable=0;points=[];autosize=1;strokeColor=none;fillColor=none;" vertex="1" parent="1">
          <mxGeometry x="325" y="608" width="30" height="30" as="geometry" />
        </mxCell>
        <mxCell id="B3PF5haj98CHpinLr4vf-78" value="" style="endArrow=block;endSize=16;endFill=0;html=1;rounded=0;entryX=0.538;entryY=1.048;entryDx=0;entryDy=0;entryPerimeter=0;" edge="1" parent="1" target="B3PF5haj98CHpinLr4vf-13">
          <mxGeometry x="0.0165" y="56" width="160" relative="1" as="geometry">
            <mxPoint x="136" y="620" as="sourcePoint" />
            <mxPoint x="200" y="580" as="targetPoint" />
            <mxPoint as="offset" />
          </mxGeometry>
        </mxCell>
        <mxCell id="B3PF5haj98CHpinLr4vf-79" value="" style="endArrow=none;html=1;rounded=0;" edge="1" parent="1">
          <mxGeometry width="50" height="50" relative="1" as="geometry">
            <mxPoint x="80" y="620" as="sourcePoint" />
            <mxPoint x="200" y="620" as="targetPoint" />
          </mxGeometry>
        </mxCell>
        <mxCell id="B3PF5haj98CHpinLr4vf-80" value="" style="endArrow=none;html=1;rounded=0;" edge="1" parent="1">
          <mxGeometry width="50" height="50" relative="1" as="geometry">
            <mxPoint x="80" y="680" as="sourcePoint" />
            <mxPoint x="80" y="620" as="targetPoint" />
          </mxGeometry>
        </mxCell>
        <mxCell id="B3PF5haj98CHpinLr4vf-81" value="" style="endArrow=none;html=1;rounded=0;" edge="1" parent="1">
          <mxGeometry width="50" height="50" relative="1" as="geometry">
            <mxPoint x="200" y="680" as="sourcePoint" />
            <mxPoint x="200" y="620" as="targetPoint" />
          </mxGeometry>
        </mxCell>
      </root>
    </mxGraphModel>
  </diagram>
</mxfile>
